HIERARCHY
ROOT Hips
{
  OFFSET 5.84602e-005 68.8428 3.50346
  CHANNELS 6 Xposition Yposition Zposition Zrotation Xrotation Yrotation
  JOINT Spine
  {
    OFFSET 0 8.597 -4.6522
    CHANNELS 3 Zrotation Xrotation Yrotation
    JOINT Spine1
    {
      OFFSET 0 7.8454 0.4098
      CHANNELS 3 Zrotation Xrotation Yrotation
      JOINT Spine2
      {
        OFFSET 0 9.7078 -2.1609
        CHANNELS 3 Zrotation Xrotation Yrotation
        JOINT Neck
        {
          OFFSET 0 21.8761 -0.4549
          CHANNELS 3 Zrotation Xrotation Yrotation
          JOINT Head
          {
            OFFSET 0 12.3537 3.3602
            CHANNELS 3 Zrotation Xrotation Yrotation
            End Site
            {
              OFFSET 0.0001 18.9506 0.5657
            }
          }
        }
        JOINT LeftShoulder
        {
          OFFSET 2.2086 21.1115 7.2329
          CHANNELS 3 Zrotation Xrotation Yrotation
          JOINT LeftArm
          {
            OFFSET 13.1193 3.0282 -4.8998
            CHANNELS 3 Zrotation Xrotation Yrotation
            JOINT LeftForeArm
            {
              OFFSET 27.4081 -0.0973053 -0.2375
              CHANNELS 3 Zrotation Xrotation Yrotation
              JOINT LeftHand
              {
                OFFSET 22.8641 0.0662994 -0.1369
                CHANNELS 3 Zrotation Xrotation Yrotation
                JOINT LeftHandIndex1
                {
                  OFFSET 8.8614 0.775009 2.4612
                  CHANNELS 3 Zrotation Xrotation Yrotation
                  JOINT LeftHandIndex2
                  {
                    OFFSET 3.3146 -0.808304 0.5841
                    CHANNELS 3 Zrotation Xrotation Yrotation
                    JOINT LeftHandIndex3
                    {
                      OFFSET 2.2628 -0.552002 0.3989
                      CHANNELS 3 Zrotation Xrotation Yrotation
                      End Site
                      {
                        OFFSET 1.6102 -0.4807 0.2612
                      }
                    }
                  }
                }
                JOINT LeftHandMiddle1
                {
                  OFFSET 8.9937 0.895004 0.2143
                  CHANNELS 3 Zrotation Xrotation Yrotation
                  JOINT LeftHandMiddle2
                  {
                    OFFSET 4.0984 0.0113983 -0.0242
                    CHANNELS 3 Zrotation Xrotation Yrotation
                    JOINT LeftHandMiddle3
                    {
                      OFFSET 2.2716 0.00689697 -0.0138001
                      CHANNELS 3 Zrotation Xrotation Yrotation
                      End Site
                      {
                        OFFSET 2.0404 -0.1441 0.0027
                      }
                    }
                  }
                }
                JOINT LeftHandRing1
                {
                  OFFSET 8.5234 0.597198 -2.0164
                  CHANNELS 3 Zrotation Xrotation Yrotation
                  JOINT LeftHandRing2
                  {
                    OFFSET 3.7188 -0.188293 -0.2328
                    CHANNELS 3 Zrotation Xrotation Yrotation
                    JOINT LeftHandRing3
                    {
                      OFFSET 2.1191 -0.106598 -0.1332
                      CHANNELS 3 Zrotation Xrotation Yrotation
                      End Site
                      {
                        OFFSET 1.8737 -0.2304 -0.0886
                      }
                    }
                  }
                }
                JOINT LeftHandPinky1
                {
                  OFFSET 7.9094 -0.601089 -3.4825
                  CHANNELS 3 Zrotation Xrotation Yrotation
                  JOINT LeftHandPinky2
                  {
                    OFFSET 2.2874 -0.477005 -0.6314
                    CHANNELS 3 Zrotation Xrotation Yrotation
                    JOINT LeftHandPinky3
                    {
                      OFFSET 1.6774 -0.349396 -0.4633
                      CHANNELS 3 Zrotation Xrotation Yrotation
                      End Site
                      {
                        OFFSET 1.4888 -0.4091 -0.3416
                      }
                    }
                  }
                }
                JOINT LeftHandThumb1
                {
                  OFFSET 1.833 -1.3875 1.3896
                  CHANNELS 3 Zrotation Xrotation Yrotation
                  JOINT LeftHandThumb2
                  {
                    OFFSET 3.4129 -1.121 2.5732
                    CHANNELS 3 Zrotation Xrotation Yrotation
                    JOINT LeftHandThumb3
                    {
                      OFFSET 2.2474 -0.804199 1.6192
                      CHANNELS 3 Zrotation Xrotation Yrotation
                      End Site
                      {
                        OFFSET 1.6527 -0.5689 1.1317
                      }
                    }
                  }
                }
              }
            }
          }
        }
        JOINT RightShoulder
        {
          OFFSET -2.2086 21.1115 7.2329
          CHANNELS 3 Zrotation Xrotation Yrotation
          JOINT RightArm
          {
            OFFSET -13.1216 3.0287 -4.9007
            CHANNELS 3 Zrotation Xrotation Yrotation
            JOINT RightForeArm
            {
              OFFSET -27.4081 -0.0973053 -0.2375
              CHANNELS 3 Zrotation Xrotation Yrotation
              JOINT RightHand
              {
                OFFSET -22.8641 0.0664063 -0.1369
                CHANNELS 3 Zrotation Xrotation Yrotation
                JOINT RightHandIndex1
                {
                  OFFSET -8.8614 0.774994 2.4612
                  CHANNELS 3 Zrotation Xrotation Yrotation
                  JOINT RightHandIndex2
                  {
                    OFFSET -3.3146 -0.808304 0.5841
                    CHANNELS 3 Zrotation Xrotation Yrotation
                    JOINT RightHandIndex3
                    {
                      OFFSET -2.2628 -0.552002 0.3989
                      CHANNELS 3 Zrotation Xrotation Yrotation
                      End Site
                      {
                        OFFSET -1.6102 -0.4807 0.2612
                      }
                    }
                  }
                }
                JOINT RightHandMiddle1
                {
                  OFFSET -8.9937 0.894989 0.2143
                  CHANNELS 3 Zrotation Xrotation Yrotation
                  JOINT RightHandMiddle2
                  {
                    OFFSET -4.0984 0.0113983 -0.0242
                    CHANNELS 3 Zrotation Xrotation Yrotation
                    JOINT RightHandMiddle3
                    {
                      OFFSET -2.2716 0.00691223 -0.0138001
                      CHANNELS 3 Zrotation Xrotation Yrotation
                      End Site
                      {
                        OFFSET -2.0404 -0.1441 0.0027
                      }
                    }
                  }
                }
                JOINT RightHandRing1
                {
                  OFFSET -8.5234 0.597198 -2.0164
                  CHANNELS 3 Zrotation Xrotation Yrotation
                  JOINT RightHandRing2
                  {
                    OFFSET -3.7188 -0.188309 -0.2328
                    CHANNELS 3 Zrotation Xrotation Yrotation
                    JOINT RightHandRing3
                    {
                      OFFSET -2.1191 -0.106598 -0.1332
                      CHANNELS 3 Zrotation Xrotation Yrotation
                      End Site
                      {
                        OFFSET -1.8737 -0.2304 -0.0886
                      }
                    }
                  }
                }
                JOINT RightHandPinky1
                {
                  OFFSET -7.9094 -0.601105 -3.4825
                  CHANNELS 3 Zrotation Xrotation Yrotation
                  JOINT RightHandPinky2
                  {
                    OFFSET -2.2874 -0.477005 -0.6314
                    CHANNELS 3 Zrotation Xrotation Yrotation
                    JOINT RightHandPinky3
                    {
                      OFFSET -1.6774 -0.349396 -0.4633
                      CHANNELS 3 Zrotation Xrotation Yrotation
                      End Site
                      {
                        OFFSET -1.4888 -0.4091 -0.3416
                      }
                    }
                  }
                }
                JOINT RightHandThumb1
                {
                  OFFSET -1.833 -1.38751 1.3896
                  CHANNELS 3 Zrotation Xrotation Yrotation
                  JOINT RightHandThumb2
                  {
                    OFFSET -3.41299 -1.12099 2.5732
                    CHANNELS 3 Zrotation Xrotation Yrotation
                    JOINT RightHandThumb3
                    {
                      OFFSET -2.24741 -0.804108 1.6192
                      CHANNELS 3 Zrotation Xrotation Yrotation
                      End Site
                      {
                        OFFSET -1.6527 -0.5689 1.1317
                      }
                    }
                  }
                }
              }
            }
          }
        }
      }
    }
  }
  JOINT RightUpLeg
  {
    OFFSET -9.1966 3.8861 -0.7581
    CHANNELS 3 Zrotation Xrotation Yrotation
    JOINT RightLeg
    {
      OFFSET -0.7359 -41.0265 0
      CHANNELS 3 Zrotation Xrotation Yrotation
      JOINT RightFoot
      {
        OFFSET 0 -40.2855 0
        CHANNELS 3 Zrotation Xrotation Yrotation
        JOINT RightToeBase
        {
          OFFSET 0 -5.6122 11.7359
          CHANNELS 3 Zrotation Xrotation Yrotation
          End Site
          {
            OFFSET 0 0 7.8731
          }
        }
      }
    }
  }
  JOINT LeftUpLeg
  {
    OFFSET 9.1965 3.8864 -0.7581
    CHANNELS 3 Zrotation Xrotation Yrotation
    JOINT LeftLeg
    {
      OFFSET 0.7359 -41.0268 0
      CHANNELS 3 Zrotation Xrotation Yrotation
      JOINT LeftFoot
      {
        OFFSET 0 -40.2855 0
        CHANNELS 3 Zrotation Xrotation Yrotation
        JOINT LeftToeBase
        {
          OFFSET 0 -5.6122 11.7359
          CHANNELS 3 Zrotation Xrotation Yrotation
          End Site
          {
            OFFSET 0 0 7.8731
          }
        }
      }
    }
  }
}
MOTION
Frames:	6
Frame Time:	0.0333333
5.84602e-005 68.8428 3.50346 0 0 -0 0 0 -0 0 0 -0 0 0 -0 0 0 -0 0 0 -0 0 0 -0 0 0 -0 0 0 -0 0 0 -0 0 0 -0 0 0 -0 0 0 -0 0 0 -0 -0.0146107 -8.87603e-005 -2.63497e-007 2.99804e-018 -2.42657e-020 -1.42182e-022 0 0 -0 -0.0187562 -0.001176 5.858e-005 5.06224e-018 3.88251e-019 1.21329e-020 0 0 -0 -0.012269 -0.00324817 0.000675346 -1.74678e-018 3.88251e-019 -0 0 0 -0 0 0 -0 0 0 -0 0 0 -0 0 0 -0 0 0 -0 0 0 -0 0 0 -0 0 0 -0 0 0 -0 0 0 -0 0.0149955 -9.10982e-005 2.64101e-007 -9.69331e-018 1.21329e-020 -4.7394e-023 0 0 -0 0.0189956 -0.00119102 -5.96516e-005 -5.41541e-019 0 2.42657e-020 0 0 -0 0.0122698 -0.00324857 -0.000673756 -2.00796e-019 0 -1.94126e-019 0 0 -0 0 0 -0 0 0 -0 3.39842 1.33031 -0.0637918 -5.65207e-008 0.834868 -0.000436188 -3.39935 -2.16518 -0.0642563 -8.89002e-024 -1.18485e-023 -1.48106e-024 -3.39844 1.35642 0.0640283 -3.18788e-007 0.782166 -0.000588827 3.39931 -2.13858 0.0634662 1.1399e-023 0 -0 
15.9538 -1.08396 20.0508 -180 -64.9956 -180 0 20.7994 -0 0 41.5988 -0 0 41.5988 -0 0 30.9993 -0 -0 -35.0004 -0 0 1.59028e-015 -0 -75.9999 -4.27334e-007 4.99678 1.61697e-005 3.00402e-006 -81.0033 24.9975 1.67835e-005 -4.22914e-006 3.18055e-015 1.98785e-016 -3.97569e-016 -1.84793e-006 1.02494e-006 -2.26204e-006 -6.36111e-015 4.96962e-015 -1.59028e-015 3.18055e-015 1.98785e-016 -3.97569e-016 -0.0145695 -7.89463e-005 3.84404e-007 -1.37935e-033 -1.98785e-016 -3.97569e-016 3.18055e-015 1.98785e-016 -3.97569e-016 -0.0188193 -0.0011774 5.27983e-005 -6.36111e-015 -1.98785e-015 -1.19271e-015 3.18055e-015 1.98785e-016 -3.97569e-016 -0.0123145 -0.00325835 0.000676632 1.24141e-032 5.96354e-016 -1.19271e-015 3.18055e-015 1.98785e-016 -3.97569e-016 -1.84793e-006 1.02494e-006 -2.26204e-006 -6.36111e-015 4.96962e-015 -1.59028e-015 8.25996 3.72199 17.8076 47.9637 17.0887 57.8223 4.86579 1.51432 5.97871 41.339 0.936486 -20.0038 6.36111e-015 -1.43125e-014 8.74653e-015 -0 -1.27222e-014 -0 -0 -1.11319e-014 -0 6.36111e-015 -1.43125e-014 8.74653e-015 0.0149743 -9.11682e-005 5.37017e-006 3.18055e-015 3.18055e-015 5.96354e-015 6.36111e-015 -1.43125e-014 8.74653e-015 0.0189716 -0.00118983 -6.32252e-005 0 3.18055e-015 -0 6.36111e-015 -1.43125e-014 8.74653e-015 0.0122146 -0.00323367 -0.000676511 6.62086e-032 -3.18055e-015 1.19271e-015 6.36111e-015 -1.43125e-014 8.74653e-015 -0 -1.27222e-014 -0 -0 -1.11319e-014 -0 -62.4724 -33.5296 -31.1402 179.964 43.0498 174.032 -2.21997 15.6424 -3.68931 -8.38346e-007 -4.39445e-007 5.11608e-006 49.6182 -33.451 18.5159 -179.978 38.0178 -173.081 2.46349 -1.71339 4.68093 -6.36111e-015 0 -0 
15.9506 -1.07992 19.6246 -180 -64.9956 -180 0 20.7994 -0 0 41.5988 -0 0 41.5988 -0 0 30.9996 -0 -0 -35.9591 -0 0 3.39935e-006 -0 -75.9999 1.29437e-006 4.99678 -1.18324e-005 -2.90794e-006 -81.0033 24.9975 3.22971e-006 -6.53891e-006 3.18055e-015 1.55052e-014 3.97569e-016 9.54166e-015 1.05356e-014 1.98785e-015 -3.18055e-015 1.45113e-014 7.95139e-016 3.18055e-015 1.55052e-014 3.97569e-016 -0.014571 -7.79158e-005 8.81275e-006 -0 -5.56597e-015 -0 3.18055e-015 1.55052e-014 3.97569e-016 -0.0188198 -0.00117986 5.6916e-005 3.03456e-032 4.37326e-015 -3.97569e-016 3.18055e-015 1.55052e-014 3.97569e-016 -0.0123169 -0.00326452 0.000677862 4.68978e-032 -3.37934e-015 7.95139e-016 3.18055e-015 1.55052e-014 3.97569e-016 9.54166e-015 1.05356e-014 1.98785e-015 -3.18055e-015 1.45113e-014 7.95139e-016 7.95518 3.58083 17.786 47.861 16.9316 58.1729 4.86578 1.51433 5.97868 39.5947 0.00452465 -19.0965 -3.18055e-015 3.18055e-015 3.57812e-015 1.10348e-032 1.59028e-015 -3.97569e-016 3.18055e-015 3.18055e-015 -1.19271e-015 -3.18055e-015 3.18055e-015 3.57812e-015 0.0149859 -9.73179e-005 -5.15821e-006 0 1.59028e-015 -0 -3.18055e-015 3.18055e-015 3.57812e-015 0.0189557 -0.00118914 -5.35108e-005 -3.18055e-015 6.36111e-015 3.97569e-015 -3.18055e-015 3.18055e-015 3.57812e-015 0.0122582 -0.00323903 -0.000673844 3.18055e-015 0 -1.59028e-015 -3.18055e-015 3.18055e-015 3.57812e-015 1.10348e-032 1.59028e-015 -3.97569e-016 3.18055e-015 3.18055e-015 -1.19271e-015 -61.3157 -33.5112 -29.5656 179.965 43.9006 174.121 -2.26821 15.6654 -3.62299 -3.57528e-006 3.88072e-007 -3.89353e-007 48.911 -33.4471 17.4471 -179.979 39.1365 -173.289 2.49029 -1.67384 4.54227 1.51315e-006 8.77812e-007 -3.06316e-006 
15.9475 -1.07628 19.1984 -180 -64.9956 -180 0 20.7994 -0 0 41.5988 -0 0 41.5988 -0 0 30.9996 -0 -0 -36.9201 -0 0 3.39935e-006 -0 -75.9999 1.29437e-006 4.99678 -1.18324e-005 -2.90794e-006 -81.0033 24.9975 3.22971e-006 -6.53891e-006 3.18055e-015 1.55052e-014 3.97569e-016 9.54166e-015 1.05356e-014 1.98785e-015 -3.18055e-015 1.45113e-014 7.95139e-016 3.18055e-015 1.55052e-014 3.97569e-016 -0.0145455 -8.73494e-005 2.08384e-007 -3.18055e-015 -3.77691e-015 7.95139e-016 3.18055e-015 1.55052e-014 3.97569e-016 -0.0188198 -0.00117986 5.6916e-005 3.03456e-032 4.37326e-015 -3.97569e-016 3.18055e-015 1.55052e-014 3.97569e-016 -0.0123169 -0.00326452 0.000677862 4.68978e-032 -3.37934e-015 7.95139e-016 3.18055e-015 1.55052e-014 3.97569e-016 9.54166e-015 1.05356e-014 1.98785e-015 -3.18055e-015 1.45113e-014 7.95139e-016 7.65035 3.43977 17.7636 47.7595 16.7741 58.5229 4.86579 1.51433 5.97869 37.8576 -0.95884 -18.2141 1.00318e-006 8.74649e-007 -9.93565e-007 8.82781e-032 1.59028e-015 -3.18055e-015 1.00318e-006 8.74649e-007 -9.93565e-007 1.00318e-006 8.74649e-007 -9.93565e-007 0.0150143 -9.1644e-005 1.30797e-006 1.05985e-006 7.49574e-007 -7.82275e-008 1.00318e-006 8.74649e-007 -9.93565e-007 0.0190025 -0.0011843 -5.40066e-005 1.0031e-006 8.74489e-007 -9.93721e-007 1.00318e-006 8.74649e-007 -9.93565e-007 0.0122431 -0.00324213 -0.000672943 1.0031e-006 8.7456e-007 -9.93685e-007 1.00318e-006 8.74649e-007 -9.93565e-007 8.82781e-032 1.59028e-015 -3.18055e-015 1.00318e-006 8.74649e-007 -9.93565e-007 -60.1584 -33.4712 -27.9957 179.966 44.7515 174.206 -2.31543 15.6901 -3.5589 -1.05223e-005 -1.10008e-006 -3.72771e-006 48.2013 -33.4349 16.3951 -179.979 40.2577 -173.485 2.51545 -1.63541 4.41085 6.23863e-007 1.54014e-006 3.49876e-007 
15.9445 -1.07303 18.7722 -180 -64.9956 -180 0 20.7994 -0 0 41.5988 -0 0 41.5988 -0 0 30.9996 -0 -0 -37.8835 -0 0 3.39935e-006 -0 -75.9999 1.29437e-006 4.99678 -1.18324e-005 -2.90794e-006 -81.0033 24.9975 3.22971e-006 -6.53891e-006 3.18055e-015 1.55052e-014 3.97569e-016 9.54166e-015 1.05356e-014 1.98785e-015 -3.18055e-015 1.45113e-014 7.95139e-016 3.18055e-015 1.55052e-014 3.97569e-016 -0.0145455 -8.73494e-005 2.08384e-007 -3.18055e-015 -3.77691e-015 7.95139e-016 3.18055e-015 1.55052e-014 3.97569e-016 -0.0188198 -0.00117986 5.6916e-005 3.03456e-032 4.37326e-015 -3.97569e-016 3.18055e-015 1.55052e-014 3.97569e-016 -0.0123169 -0.00326452 0.000677862 4.68978e-032 -3.37934e-015 7.95139e-016 3.18055e-015 1.55052e-014 3.97569e-016 9.54166e-015 1.05356e-014 1.98785e-015 -3.18055e-015 1.45113e-014 7.95139e-016 7.34548 3.29881 17.7404 47.6591 16.6159 58.8725 4.86578 1.51433 5.97869 36.1285 -1.95204 -17.3578 3.18055e-015 0 2.38542e-015 3.18055e-015 -3.18055e-015 3.97569e-015 3.18055e-015 0 -3.18055e-015 3.18055e-015 0 2.38542e-015 0.0150487 -9.30564e-005 -1.71027e-006 -6.62086e-031 9.54166e-015 3.97569e-015 3.18055e-015 0 2.38542e-015 0.0189766 -0.00119251 -5.93065e-005 9.54166e-015 6.36111e-015 -3.97569e-015 3.18055e-015 0 2.38542e-015 0.0121866 -0.00322948 -0.000676514 -3.53113e-031 -6.36111e-015 -3.18055e-015 3.18055e-015 0 2.38542e-015 3.18055e-015 -3.18055e-015 3.97569e-015 3.18055e-015 0 -3.18055e-015 -59.0022 -33.4091 -26.4313 179.968 45.6027 174.288 -2.36162 15.7162 -3.49684 -6.49176e-006 -1.16034e-006 -4.53551e-008 47.4885 -33.4152 15.3585 -179.98 41.3803 -173.671 2.53914 -1.59818 4.28617 -1.0313e-006 1.22981e-006 -4.96126e-006 
15.9416 -1.07015 18.346 -180 -64.9956 -180 0 20.7994 -0 0 41.5988 -0 0 41.5988 -0 0 30.9996 -0 -0 -38.849 -0 0 3.39935e-006 -0 -75.9999 1.29437e-006 4.99678 -1.18324e-005 -2.90794e-006 -81.0033 24.9975 3.22971e-006 -6.53891e-006 3.18055e-015 1.55052e-014 3.97569e-016 9.54166e-015 1.05356e-014 1.98785e-015 -3.18055e-015 1.45113e-014 7.95139e-016 3.18055e-015 1.55052e-014 3.97569e-016 -0.014571 -7.79158e-005 8.81275e-006 -0 -5.56597e-015 -0 3.18055e-015 1.55052e-014 3.97569e-016 -0.0188198 -0.00117986 5.6916e-005 3.03456e-032 4.37326e-015 -3.97569e-016 3.18055e-015 1.55052e-014 3.97569e-016 -0.0123169 -0.00326452 0.000677862 4.68978e-032 -3.37934e-015 7.95139e-016 3.18055e-015 1.55052e-014 3.97569e-016 9.54166e-015 1.05356e-014 1.98785e-015 -3.18055e-015 1.45113e-014 7.95139e-016 7.04058 3.15797 17.7166 47.5597 16.4571 59.2214 4.86578 1.51433 5.97868 34.4081 -2.97357 -16.5289 1.32205e-006 1.31954e-006 -2.09408e-006 2.70564e-006 2.2735e-006 -1.87803e-006 -3.18055e-015 1.59028e-015 -3.97569e-015 1.32205e-006 1.31954e-006 -2.09408e-006 0.0150192 -8.52835e-005 5.33435e-006 -6.93357e-007 -4.76985e-007 -1.07963e-007 1.32205e-006 1.31954e-006 -2.09408e-006 0.0189736 -0.00118779 -6.67809e-005 -6.93769e-007 -4.76875e-007 -1.07932e-007 1.32205e-006 1.31954e-006 -2.09408e-006 0.0122254 -0.00322994 -0.000671075 -1.32417e-031 1.59028e-015 4.77083e-015 1.32205e-006 1.31954e-006 -2.09408e-006 2.70564e-006 2.2735e-006 -1.87803e-006 -3.18055e-015 1.59028e-015 -3.97569e-015 -57.8478 -33.325 -24.8734 179.969 46.4538 174.368 -2.4068 15.7437 -3.43668 -3.18308e-006 -7.82143e-007 4.79132e-008 46.7739 -33.3873 14.3366 -179.98 42.5045 -173.848 2.56144 -1.56196 4.16766 4.92515e-006 2.19688e-007 -8.66665e-006 
